<svg width="32" height="37" viewBox="0 0 32 37" fill="none" xmlns="http://www.w3.org/2000/svg">
<path d="M31.5221 20.548C30.8283 21.7441 29.6731 22.4994 28.7265 23.4529C24.7552 27.4481 20.7361 31.4023 16.8195 35.4487C15.89 36.4091 15.3192 36.4227 14.5605 35.4077C14.2871 35.042 13.8872 34.7754 13.5455 34.461C9.4136 30.3223 5.28172 26.1836 1.14984 22.0449C-0.0531542 20.8419 -0.0599894 20.3429 1.16351 19.1331C1.6078 18.6956 1.9769 18.4256 1.28996 17.7831C-0.17277 16.4127 -0.118089 16.0777 1.32414 14.6321C1.62147 14.3348 1.89146 14.0101 2.1717 13.6991C6.21472 9.70392 10.2577 5.71216 14.3008 1.71699C15.4183 0.613104 15.9481 0.606268 17.0383 1.67598C18.2754 2.89264 19.5194 4.10247 20.76 5.31572C24.1127 8.67522 27.4551 12.045 30.8249 15.384C31.4024 15.9547 31.6143 16.3409 30.924 17.0176C29.5433 18.371 29.5843 18.4051 30.9582 19.861C31.1598 20.0763 31.3341 20.3156 31.5186 20.5446L31.5221 20.548ZM30.2746 16.1564C30.155 16.0196 30.0251 15.859 29.8782 15.7121C25.3328 11.1837 20.7805 6.66568 16.2488 2.12368C15.8045 1.6794 15.5482 1.71357 15.1244 2.13735C10.5927 6.67593 6.04726 11.2008 1.48477 15.7086C1.03023 16.1564 1.06782 16.4161 1.51552 16.8159C2.33575 17.5542 3.10813 18.3436 3.89417 19.1228C7.59885 22.807 11.3172 26.4809 14.9911 30.1959C15.5482 30.7563 15.825 30.7563 16.3855 30.1959C20.7942 25.7735 25.2439 21.3921 29.6731 16.9902C29.9021 16.7647 30.237 16.5972 30.278 16.1598L30.2746 16.1564Z" fill="#3056D3"/>
<path d="M30.2574 16.1564C30.2164 16.5938 29.8817 16.7613 29.6529 16.9868C25.2262 21.3887 20.7824 25.7735 16.3728 30.1924C15.8161 30.7529 15.536 30.7529 14.9792 30.1924C11.304 26.4809 7.59121 22.8036 3.88865 19.1194C3.10647 18.3402 2.33112 17.5507 1.51137 16.8125C1.06392 16.4093 1.02634 16.1529 1.48063 15.7052C6.04393 11.2008 10.5867 6.67593 15.1159 2.13736C15.5394 1.71357 15.799 1.6794 16.2396 2.12369C20.7688 6.66568 25.3184 11.1837 29.8612 15.7121C30.0081 15.859 30.1379 16.0231 30.2574 16.1564ZM15.7717 5.23029C15.3584 5.2337 15.1364 5.49686 14.8939 5.73609C11.649 8.97256 8.41438 12.2193 5.14561 15.4318C4.49664 16.0709 4.55812 16.4879 5.17635 17.0962C8.41438 20.278 11.6319 23.4837 14.8255 26.7133C15.4335 27.3285 15.8571 27.4037 16.4958 26.7578C19.7202 23.5008 22.9684 20.2677 26.2406 17.0586C26.893 16.4195 26.8145 16.0094 26.2065 15.4113C22.9377 12.1988 19.7031 8.95205 16.4548 5.719C16.2499 5.51395 16.0757 5.25421 15.7717 5.2337V5.23029Z" fill="white"/>
<path d="M15.7717 5.23029C16.0757 5.25079 16.2499 5.51053 16.4548 5.71558C19.7031 8.94864 22.9377 12.1954 26.2065 15.4079C26.8179 16.006 26.8964 16.4161 26.2406 17.0552C22.9684 20.2643 19.7202 23.5008 16.4958 26.7543C15.8571 27.4003 15.4335 27.3251 14.8255 26.7099C11.6319 23.4837 8.41437 20.278 5.17634 17.0928C4.55811 16.4844 4.49663 16.0641 5.1456 15.4284C8.41437 12.2159 11.649 8.96914 14.8938 5.73267C15.1364 5.49344 15.3584 5.23029 15.7717 5.22687V5.23029ZM15.6965 21.5801C15.8331 21.4639 15.9561 21.3716 16.0654 21.2657C17.6264 19.7107 19.1771 18.1454 20.7551 16.6075C21.2025 16.1734 20.8644 15.9581 20.598 15.695C19.1566 14.2596 17.6947 12.8447 16.2874 11.3751C15.8195 10.8864 15.5462 10.9069 15.0885 11.3785C13.7052 12.8105 12.2911 14.2152 10.8531 15.5959C10.3852 16.0436 10.3271 16.3238 10.8292 16.8023C12.3014 18.2069 13.7223 19.6628 15.1637 21.0982C15.3106 21.2452 15.4711 21.3785 15.6965 21.5835V21.5801Z" fill="#3056D3"/>
<path d="M15.6965 21.5801C15.4711 21.3785 15.3106 21.2418 15.1637 21.0948C13.7223 19.6594 12.3014 18.2035 10.8292 16.7989C10.3271 16.3204 10.3886 16.0402 10.8531 15.5925C12.2911 14.2152 13.7052 12.8105 15.0885 11.3751C15.5428 10.9035 15.8161 10.883 16.2874 11.3717C17.6947 12.8379 19.1566 14.2528 20.598 15.6916C20.8644 15.9547 21.2025 16.17 20.7551 16.6041C19.1771 18.142 17.6264 19.7107 16.0654 21.2623C15.9561 21.3682 15.8332 21.4605 15.6965 21.5767V21.5801ZM17.5 16.2555C17.0628 15.4763 16.506 14.8577 15.7409 14.4886C15.4199 14.3348 13.9238 15.8385 13.9238 16.2384C13.9238 16.6348 15.413 18.1386 15.7375 17.9916C16.5163 17.6396 17.0355 16.9868 17.5 16.2555Z" fill="white"/>
<path d="M17.5 16.2555C17.0355 16.9868 16.5163 17.6396 15.7375 17.9916C15.413 18.1386 13.9238 16.6348 13.9238 16.2384C13.9238 15.8385 15.4199 14.3348 15.7409 14.4886C16.506 14.8542 17.0628 15.4763 17.5 16.2555Z" fill="#3056D3"/>
</svg>
