<svg width="42" height="48" viewBox="0 0 42 48" fill="none" xmlns="http://www.w3.org/2000/svg">
<path d="M41.7395 26.2222C40.8145 27.8171 39.2743 28.8242 38.012 30.0955C32.717 35.4224 27.3582 40.6946 22.1361 46.0899C20.8967 47.3703 20.1357 47.3886 19.1241 46.0352C18.7595 45.5476 18.2264 45.1922 17.7707 44.773C12.2616 39.2547 6.75238 33.7364 1.24321 28.2181C-0.360787 26.6141 -0.3699 25.9488 1.26143 24.3357C1.85382 23.7525 2.34595 23.3925 1.43004 22.5358C-0.520275 20.7085 -0.447366 20.2619 1.4756 18.3344C1.87205 17.938 2.23203 17.5051 2.60569 17.0904C7.99639 11.7635 13.3871 6.44117 18.7778 1.11427C20.2678 -0.357577 20.9742 -0.366691 22.4278 1.05959C24.0773 2.68181 25.736 4.29492 27.3901 5.91258C31.8603 10.3919 36.3169 14.8849 40.8099 19.3369C41.58 20.0979 41.8625 20.6128 40.9421 21.5151C39.1011 23.3196 39.1558 23.3651 40.9876 25.3063C41.2565 25.5934 41.4889 25.9124 41.7349 26.2177L41.7395 26.2222ZM40.0763 20.3667C39.9168 20.1845 39.7436 19.9703 39.5477 19.7744C33.4871 13.7366 27.4175 7.71252 21.3752 1.65653C20.7828 1.06414 20.441 1.10971 19.876 1.67476C13.8336 7.72619 7.7731 13.7594 1.68977 19.7698C1.08372 20.3667 1.13384 20.7131 1.73078 21.2462C2.82442 22.2305 3.85425 23.2831 4.90232 24.3221C9.84189 29.2343 14.7997 34.1328 19.6982 39.0861C20.441 39.8334 20.8101 39.8334 21.5574 39.0861C27.4357 33.1896 33.3687 27.3478 39.2743 21.4786C39.5796 21.1779 40.0261 20.9546 40.0808 20.3713L40.0763 20.3667Z" fill="#3056D3"/>
<path d="M40.0533 20.3667C39.9987 20.95 39.5524 21.1733 39.2472 21.4741C33.345 27.3432 27.42 33.1896 21.5405 39.0815C20.7982 39.8288 20.4247 39.8288 19.6824 39.0815C14.7821 34.1328 9.8317 29.2297 4.89496 24.3175C3.85205 23.2785 2.81825 22.2259 1.72524 21.2417C1.12864 20.704 1.07854 20.3622 1.68425 19.7653C7.76865 13.7594 13.8257 7.72619 19.8646 1.67476C20.4293 1.10971 20.7754 1.06414 21.3629 1.65653C27.4018 7.71252 33.468 13.7366 39.525 19.7744C39.7209 19.9703 39.8939 20.189 40.0533 20.3667ZM20.739 5.79866C20.1879 5.80322 19.8919 6.15409 19.5686 6.47307C15.2421 10.7884 10.9293 15.1173 6.5709 19.4007C5.7056 20.2528 5.78758 20.8088 6.61189 21.6199C10.9293 25.8623 15.2193 30.1365 19.4775 34.4427C20.2881 35.2629 20.8528 35.3632 21.7045 34.5019C26.0036 30.1593 30.3347 25.8486 34.6976 21.5697C35.5674 20.7176 35.4627 20.1708 34.652 19.3734C30.2937 15.09 25.9809 10.761 21.6498 6.45028C21.3766 6.17687 21.1443 5.83056 20.739 5.80322V5.79866Z" fill="white"/>
<path d="M20.739 5.79866C21.1443 5.826 21.3766 6.17232 21.6498 6.44573C25.9809 10.7565 30.2937 15.0854 34.652 19.3688C35.4672 20.1663 35.572 20.7131 34.6976 21.5652C30.3347 25.844 26.0036 30.1593 21.7045 34.4974C20.8528 35.3586 20.2881 35.2584 19.4775 34.4382C15.2193 30.1365 10.9292 25.8623 6.61187 21.6153C5.78756 20.8042 5.70559 20.2437 6.57089 19.3962C10.9292 15.1128 15.2421 10.7838 19.5685 6.46851C19.8919 6.14954 20.1879 5.79866 20.739 5.79411V5.79866ZM20.6388 27.5984C20.821 27.4435 20.9849 27.3204 21.1306 27.1792C23.2119 25.1058 25.2795 23.0188 27.3835 20.9682C27.9801 20.3895 27.5293 20.1025 27.174 19.7516C25.2522 17.8377 23.303 15.9512 21.4267 13.9918C20.8027 13.3402 20.4384 13.3675 19.8281 13.9963C17.9837 15.9056 16.0983 17.7785 14.1809 19.6194C13.557 20.2164 13.4796 20.59 14.1491 21.228C16.1119 23.1008 18.0065 25.042 19.9283 26.9559C20.1242 27.1518 20.3382 27.3295 20.6388 27.603V27.5984Z" fill="#3056D3"/>
<path d="M20.6388 27.5984C20.3382 27.3295 20.1242 27.1473 19.9283 26.9513C18.0065 25.0375 16.1119 23.0963 14.1491 21.2234C13.4796 20.5855 13.5616 20.2118 14.1809 19.6149C16.0983 17.7785 17.9837 15.9056 19.8281 13.9918C20.4339 13.3629 20.7982 13.3356 21.4267 13.9872C23.303 15.9421 25.2522 17.8286 27.1741 19.747C27.5293 20.0979 27.9801 20.385 27.3836 20.9637C25.2795 23.0143 23.2119 25.1058 21.1306 27.1746C20.9849 27.3159 20.821 27.4389 20.6388 27.5938V27.5984ZM23.0434 20.4989C22.4605 19.4599 21.7181 18.6352 20.698 18.143C20.2699 17.938 18.2752 19.943 18.2752 20.4761C18.2752 21.0047 20.2608 23.0097 20.6934 22.8138C21.7318 22.3444 22.424 21.4741 23.0434 20.4989Z" fill="white"/>
<path d="M23.0434 20.4989C22.424 21.4741 21.7318 22.3444 20.6935 22.8138C20.2608 23.0097 18.2752 21.0047 18.2752 20.4761C18.2752 19.943 20.2699 17.938 20.698 18.143C21.7181 18.6306 22.4605 19.4599 23.0434 20.4989Z" fill="#3056D3"/>
</svg>
