<svg width="157" height="48" viewBox="0 0 157 48" fill="none" xmlns="http://www.w3.org/2000/svg">
<path d="M41.7395 26.2222C40.8145 27.8171 39.2743 28.8242 38.012 30.0955C32.717 35.4224 27.3582 40.6946 22.1361 46.0899C20.8967 47.3703 20.1357 47.3886 19.1241 46.0352C18.7595 45.5476 18.2264 45.1922 17.7707 44.773C12.2616 39.2547 6.75238 33.7364 1.24321 28.2181C-0.360787 26.6141 -0.3699 25.9488 1.26143 24.3357C1.85382 23.7525 2.34595 23.3925 1.43004 22.5358C-0.520275 20.7085 -0.447366 20.2619 1.4756 18.3344C1.87205 17.938 2.23203 17.5051 2.60569 17.0904C7.99639 11.7635 13.3871 6.44117 18.7778 1.11427C20.2678 -0.357577 20.9742 -0.366691 22.4278 1.05959C24.0773 2.68181 25.736 4.29492 27.3901 5.91258C31.8603 10.3919 36.3169 14.8849 40.8099 19.3369C41.58 20.0979 41.8625 20.6128 40.9421 21.5151C39.1011 23.3196 39.1558 23.3651 40.9876 25.3063C41.2565 25.5934 41.4889 25.9124 41.7349 26.2177L41.7395 26.2222ZM40.0763 20.3667C39.9168 20.1845 39.7436 19.9703 39.5477 19.7744C33.4871 13.7366 27.4175 7.71252 21.3752 1.65653C20.7828 1.06414 20.441 1.10971 19.876 1.67476C13.8336 7.72619 7.7731 13.7594 1.68977 19.7698C1.08372 20.3667 1.13384 20.7131 1.73078 21.2462C2.82442 22.2305 3.85425 23.2831 4.90232 24.3221C9.84189 29.2343 14.7997 34.1328 19.6982 39.0861C20.441 39.8334 20.8101 39.8334 21.5574 39.0861C27.4357 33.1896 33.3687 27.3478 39.2743 21.4786C39.5796 21.1779 40.0261 20.9546 40.0808 20.3713L40.0763 20.3667Z" fill="white"/>
<path d="M40.0533 20.3667C39.9987 20.95 39.5524 21.1733 39.2472 21.4741C33.345 27.3432 27.42 33.1896 21.5405 39.0815C20.7982 39.8288 20.4247 39.8288 19.6824 39.0815C14.7821 34.1328 9.8317 29.2297 4.89496 24.3175C3.85205 23.2785 2.81825 22.2259 1.72524 21.2417C1.12864 20.704 1.07854 20.3622 1.68425 19.7653C7.76865 13.7594 13.8257 7.72619 19.8646 1.67476C20.4293 1.10971 20.7754 1.06414 21.3629 1.65653C27.4018 7.71252 33.468 13.7366 39.525 19.7744C39.7209 19.9703 39.8939 20.189 40.0533 20.3667ZM20.739 5.79866C20.1879 5.80322 19.8919 6.15409 19.5686 6.47307C15.2421 10.7884 10.9293 15.1173 6.5709 19.4007C5.7056 20.2528 5.78758 20.8088 6.61189 21.6199C10.9293 25.8623 15.2193 30.1365 19.4775 34.4427C20.2881 35.2629 20.8528 35.3632 21.7045 34.5019C26.0036 30.1593 30.3347 25.8486 34.6976 21.5697C35.5674 20.7176 35.4627 20.1708 34.652 19.3734C30.2937 15.09 25.9809 10.761 21.6498 6.45028C21.3766 6.17687 21.1443 5.83056 20.739 5.80322V5.79866Z" fill="#3056D3"/>
<path d="M20.739 5.79866C21.1443 5.826 21.3766 6.17232 21.6498 6.44573C25.9809 10.7565 30.2937 15.0854 34.652 19.3688C35.4672 20.1663 35.572 20.7131 34.6976 21.5652C30.3347 25.844 26.0036 30.1593 21.7045 34.4974C20.8528 35.3586 20.2881 35.2584 19.4775 34.4382C15.2193 30.1365 10.9292 25.8623 6.61187 21.6153C5.78756 20.8042 5.70559 20.2437 6.57089 19.3962C10.9292 15.1128 15.2421 10.7838 19.5685 6.46851C19.8919 6.14954 20.1879 5.79866 20.739 5.79411V5.79866ZM20.6388 27.5984C20.821 27.4435 20.9849 27.3204 21.1306 27.1792C23.2119 25.1058 25.2795 23.0188 27.3835 20.9682C27.9801 20.3895 27.5293 20.1025 27.174 19.7516C25.2522 17.8377 23.303 15.9512 21.4267 13.9918C20.8027 13.3402 20.4384 13.3675 19.8281 13.9963C17.9837 15.9056 16.0983 17.7785 14.1809 19.6194C13.557 20.2164 13.4796 20.59 14.1491 21.228C16.1119 23.1008 18.0065 25.042 19.9283 26.9559C20.1242 27.1518 20.3382 27.3295 20.6388 27.603V27.5984Z" fill="white"/>
<path d="M20.6388 27.5984C20.3382 27.3295 20.1242 27.1473 19.9283 26.9513C18.0065 25.0375 16.1119 23.0963 14.1491 21.2234C13.4796 20.5855 13.5616 20.2118 14.1809 19.6149C16.0983 17.7785 17.9837 15.9056 19.8281 13.9918C20.4339 13.3629 20.7982 13.3356 21.4267 13.9872C23.303 15.9421 25.2522 17.8286 27.1741 19.747C27.5293 20.0979 27.9801 20.385 27.3836 20.9637C25.2795 23.0143 23.2119 25.1058 21.1306 27.1746C20.9849 27.3159 20.821 27.4389 20.6388 27.5938V27.5984ZM23.0434 20.4989C22.4605 19.4599 21.7181 18.6352 20.698 18.143C20.2699 17.938 18.2752 19.943 18.2752 20.4761C18.2752 21.0047 20.2608 23.0097 20.6934 22.8138C21.7318 22.3444 22.424 21.4741 23.0434 20.4989Z" fill="#3056D3"/>
<path d="M23.0434 20.4989C22.424 21.4741 21.7318 22.3444 20.6935 22.8138C20.2608 23.0097 18.2752 21.0047 18.2752 20.4761C18.2752 19.943 20.2699 17.938 20.698 18.143C21.7181 18.6306 22.4605 19.4599 23.0434 20.4989Z" fill="white"/>
<path d="M70.5522 38.4914C65.7219 38.4914 60.887 38.4525 56.0566 38.5246C54.9903 38.5412 54.7351 38.1643 54.7397 36.8946C54.7852 27.963 54.7898 19.0314 54.7397 10.0998C54.7306 8.75809 55.0906 8.51969 56.0931 8.52523C65.7538 8.56959 75.419 8.55295 85.0797 8.55295C85.8772 8.55295 86.8068 8.41435 86.825 9.84474C86.8478 11.3417 85.8681 11.1143 85.098 11.1143C76.2894 11.1254 67.4763 11.1753 58.6677 11.07C57.1047 11.0534 56.7311 11.6078 56.8313 13.3875C56.9589 15.594 56.9543 17.8228 56.8313 20.0293C56.7356 21.7647 57.0591 22.3412 58.6313 22.3191C67.212 22.2026 75.7973 22.2636 84.378 22.2636C84.8337 22.2636 85.2893 22.2914 85.7405 22.2747C86.4559 22.247 86.7886 22.7072 86.8296 23.5166C86.8752 24.387 86.4878 24.7807 85.7997 24.7862C85.4033 24.7862 85.0023 24.7862 84.6058 24.7862C75.9112 24.7862 67.212 24.825 58.5174 24.7474C57.1731 24.7363 56.7493 25.1632 56.8313 26.8043C56.9452 29.2215 56.9452 31.6554 56.8313 34.0727C56.7584 35.6139 57.1002 36.0242 58.3989 36.0131C66.9249 35.93 75.4509 35.9743 83.9769 35.9743C84.3734 35.9743 84.7744 35.9688 85.1709 35.9743C85.9547 35.9909 86.8797 35.7858 86.8387 37.2994C86.8022 38.6743 85.9228 38.4858 85.2119 38.4914C80.3223 38.508 75.4373 38.4969 70.5477 38.4969L70.5522 38.4914Z" fill="white"/>
<path d="M102.467 8.56434C106.163 8.56434 109.859 8.48655 113.55 8.58657C117.305 8.68659 120.499 11.5981 121.547 15.6599C122.677 20.0495 121.525 24.489 118.526 27.3561C116.881 28.9286 114.981 29.4065 112.944 29.4009C106.578 29.3842 100.212 29.4731 93.8457 29.3398C92.2007 29.3064 91.8179 29.9621 91.95 31.7735C92.0685 33.4237 91.9774 35.1018 91.9728 36.7687C91.9728 37.6244 91.9728 38.5023 90.9748 38.5245C89.8857 38.5523 89.8675 37.6188 89.8675 36.6743C89.8675 27.7229 89.8903 18.7715 89.8402 9.82009C89.8311 8.57546 90.2731 8.51989 91.0478 8.52545C94.8574 8.55323 98.6624 8.53656 102.472 8.53656C102.472 8.54212 102.472 8.55323 102.472 8.55879L102.467 8.56434ZM103.402 26.8616C106.637 26.8616 109.872 26.8838 113.108 26.8616C116.94 26.8338 119.807 23.5167 119.866 19.0882C119.925 14.732 117.031 11.1759 113.235 11.137C106.591 11.0703 99.952 11.137 93.308 11.0925C92.2964 11.087 91.9181 11.387 91.9409 12.7039C92.0047 16.9323 92.0002 21.1607 91.9409 25.3892C91.9227 26.5782 92.2098 26.9172 93.1758 26.895C96.5799 26.8283 99.9885 26.8672 103.392 26.8672L103.402 26.8616Z" fill="white"/>
<path d="M140.764 8.5759C145.594 8.5759 150.424 8.56479 155.255 8.587C155.934 8.587 156.763 8.28718 156.804 9.79184C156.85 11.4298 155.957 11.1299 155.214 11.1299C146.405 11.1466 137.597 11.1855 128.788 11.0966C127.321 11.08 126.97 11.613 127.057 13.2953C127.18 15.6439 127.193 18.0148 127.052 20.3634C126.947 22.1012 127.503 22.3455 128.752 22.3344C137.506 22.2733 146.255 22.2955 155.009 22.3178C155.587 22.3178 156.303 21.9569 156.708 22.8119C157.214 23.8779 156.649 24.8163 155.464 24.8218C150.52 24.8385 145.576 24.8274 140.632 24.8274C136.653 24.8274 132.675 24.9162 128.697 24.783C127.289 24.7385 127.016 25.316 127.057 26.8706C127.148 30.0576 127.093 33.2502 127.079 36.4372C127.079 37.3977 127.184 38.547 125.986 38.5248C124.714 38.5026 125.015 37.27 125.01 36.3705C124.997 27.7035 125.029 19.0364 124.974 10.3693C124.965 8.9479 125.216 8.50372 126.441 8.52593C131.212 8.62031 135.988 8.56479 140.764 8.56479V8.5759Z" fill="white"/>
</svg>
